<svg viewBox="0 0 24 24" xmlns="http://www.w3.org/2000/svg">
	<path fill-rule="evenodd" clip-rule="evenodd" d="M9.16986 4.5076C9.36683 4.048 9.81876 3.75 10.3188 3.75H13.6812C14.1812 3.75 14.6332 4.048 14.8301 4.5076L15.4697 5.99988H8.53031L9.16986 4.5076ZM6.89836 5.99988L7.79114 3.91672C8.22448 2.90559 9.21871 2.25 10.3188 2.25H13.6812C14.7813 2.25 15.7755 2.90559 16.2089 3.91672L17.1016 5.99988H20C20.4142 5.99988 20.75 6.33567 20.75 6.74988C20.75 7.1641 20.4142 7.49988 20 7.49988H18.75V18.9197C18.75 20.4385 17.5188 21.6697 16 21.6697H12H8C6.48122 21.6697 5.25 20.4385 5.25 18.9197V7.49988H4C3.58579 7.49988 3.25 7.1641 3.25 6.74988C3.25 6.33567 3.58579 5.99988 4 5.99988H6.89836ZM6.75 7.49988H17.25V18.9197C17.25 19.61 16.6904 20.1697 16 20.1697H12H8C7.30964 20.1697 6.75 19.61 6.75 18.9197V7.49988ZM10 9.75C10.4142 9.75 10.75 10.0858 10.75 10.5V16.5C10.75 16.9142 10.4142 17.25 10 17.25C9.58579 17.25 9.25 16.9142 9.25 16.5V10.5C9.25 10.0858 9.58579 9.75 10 9.75ZM14.75 10.5C14.75 10.0858 14.4142 9.75 14 9.75C13.5858 9.75 13.25 10.0858 13.25 10.5V16.5C13.25 16.9142 13.5858 17.25 14 17.25C14.4142 17.25 14.75 16.9142 14.75 16.5V10.5Z" />
</svg>
