<?xml version="1.0" encoding="UTF-8"?><!DOCTYPE svg PUBLIC "-//W3C//DTD SVG 1.1//EN" "http://www.w3.org/Graphics/SVG/1.1/DTD/svg11.dtd"><svg xmlns="http://www.w3.org/2000/svg" xmlns:xlink="http://www.w3.org/1999/xlink"><defs/><symbol id="arrow-down" viewBox="0 0 20 20">
	<path fill-rule="evenodd" clip-rule="evenodd" d="M15.5303 6.96979C15.8232 7.26269 15.8232 7.73756 15.5303 8.03045L10.5303 13.0305C10.2374 13.3233 9.76256 13.3233 9.46967 13.0305L4.46967 8.03045C4.17678 7.73756 4.17678 7.26268 4.46967 6.96979C4.76256 6.6769 5.23744 6.6769 5.53033 6.96979L10 11.4395L14.4697 6.96979C14.7626 6.6769 15.2374 6.6769 15.5303 6.96979Z" fill="#000B26" fill-opacity="0.72"/>
</symbol><symbol id="arrow-top" viewBox="0 0 24 24">
	<path fill-rule="evenodd" clip-rule="evenodd" d="M5.46967 15.5303C5.17678 15.2374 5.17678 14.7626 5.46967 14.4697L11.4697 8.46967C11.7626 8.17678 12.2374 8.17678 12.5303 8.46967L18.5303 14.4697C18.8232 14.7626 18.8232 15.2374 18.5303 15.5303C18.2374 15.8232 17.7626 15.8232 17.4697 15.5303L12 10.0607L6.53033 15.5303C6.23744 15.8232 5.76256 15.8232 5.46967 15.5303Z"/>
</symbol><symbol id="close" viewBox="0 0 24 24">
	<path fill-rule="evenodd" clip-rule="evenodd" d="M18.5303 6.53033C18.8232 6.23744 18.8232 5.76256 18.5303 5.46967C18.2374 5.17678 17.7626 5.17678 17.4697 5.46967L12 10.9393L6.53033 5.46967C6.23744 5.17678 5.76256 5.17678 5.46967 5.46967C5.17678 5.76256 5.17678 6.23744 5.46967 6.53033L10.9393 12L5.46967 17.4697C5.17678 17.7626 5.17678 18.2374 5.46967 18.5303C5.76256 18.8232 6.23744 18.8232 6.53033 18.5303L12 13.0607L17.4697 18.5303C17.7626 18.8232 18.2374 18.8232 18.5303 18.5303C18.8232 18.2374 18.8232 17.7626 18.5303 17.4697L13.0607 12L18.5303 6.53033Z"/>
</symbol><symbol id="eye-off" viewBox="0 0 24 24">
	<path fill-rule="evenodd" clip-rule="evenodd" d="M20.0307 3.96967C20.3236 4.26256 20.3236 4.73744 20.0307 5.03033L18.3912 6.66991C18.3912 6.67 18.3913 6.67008 18.3914 6.67016L17.3303 7.73131C17.3302 7.73123 17.3301 7.73115 17.33 7.73106L7.85192 17.2091C7.85202 17.2092 7.85213 17.2093 7.85223 17.2094L6.77451 18.2871C6.77441 18.287 6.7743 18.2869 6.7742 18.2869L5.03074 20.0303C4.73784 20.3232 4.26297 20.3232 3.97007 20.0303C3.67718 19.7374 3.67718 19.2626 3.97007 18.9697L5.60966 17.3301C3.6351 15.48 2.51846 13.2015 2.14401 12.3461C2.04705 12.1246 2.04705 11.8754 2.14401 11.6539C2.81602 10.1188 5.87852 4 12.0004 4C14.0901 4 15.8233 4.71293 17.2266 5.71314L18.9701 3.96967C19.263 3.67678 19.7378 3.67678 20.0307 3.96967ZM8.55644 19.2957C9.57483 19.7327 10.7208 20 12.0004 20C18.1223 20 21.1848 13.8812 21.8568 12.3461C21.9538 12.1246 21.9538 11.8754 21.8568 11.6539C21.577 11.0148 20.883 9.5814 19.7264 8.12574L18.6581 9.19408C19.5093 10.2937 20.0733 11.3702 20.3671 12C19.9914 12.8055 19.1735 14.3416 17.8783 15.7225C16.4384 17.2575 14.5112 18.5 12.0004 18.5C11.1783 18.5 10.4188 18.3668 9.71843 18.1337L8.55644 19.2957ZM12.0004 5.5C13.6164 5.5 14.9907 6.01472 16.1489 6.79085L13.5244 9.41538C13.2911 9.27755 13.0376 9.1704 12.7693 9.09947C12.5239 9.03457 12.2662 9 12.0003 9C10.3435 9 9.00035 10.3431 9.00035 12C9.00035 12.2658 9.03492 12.5236 9.09982 12.769C9.17075 13.0372 9.2779 13.2908 9.41573 13.524L6.67081 16.2689C6.48069 16.0923 6.29799 15.9096 6.12253 15.7225C4.82726 14.3416 4.00945 12.8055 3.63371 12C4.00945 11.1945 4.82726 9.65836 6.12253 8.27749C7.56236 6.7425 9.4896 5.5 12.0004 5.5Z"/>
</symbol><symbol id="eye" viewBox="0 0 24 24">
	<path fill-rule="evenodd" clip-rule="evenodd" d="M17.878 8.27749C19.1733 9.65836 19.9911 11.1945 20.3669 12C19.9911 12.8055 19.1733 14.3416 17.878 15.7225C16.4382 17.2575 14.511 18.5 12.0002 18.5C9.48936 18.5 7.56212 17.2575 6.12229 15.7225C4.82702 14.3416 4.00921 12.8055 3.63346 12C4.00921 11.1945 4.82702 9.65836 6.12229 8.27749C7.56212 6.7425 9.48936 5.5 12.0002 5.5C14.511 5.5 16.4382 6.7425 17.878 8.27749ZM21.8566 11.6539C21.9535 11.8754 21.9535 12.1246 21.8566 12.3461C21.1845 13.8812 18.122 20 12.0002 20C5.87827 20 2.81578 13.8812 2.14376 12.3461C2.04681 12.1246 2.04681 11.8754 2.14376 11.6539C2.81578 10.1188 5.87828 4 12.0002 4C18.122 4 21.1845 10.1188 21.8566 11.6539ZM12.0001 15C13.657 15 15.0001 13.6569 15.0001 12C15.0001 10.3431 13.657 9 12.0001 9C10.3433 9 9.00011 10.3431 9.00011 12C9.00011 13.6569 10.3433 15 12.0001 15Z"/>
</symbol><symbol id="trash" viewBox="0 0 24 24">
	<path fill-rule="evenodd" clip-rule="evenodd" d="M9.16986 4.5076C9.36683 4.048 9.81876 3.75 10.3188 3.75H13.6812C14.1812 3.75 14.6332 4.048 14.8301 4.5076L15.4697 5.99988H8.53031L9.16986 4.5076ZM6.89836 5.99988L7.79114 3.91672C8.22448 2.90559 9.21871 2.25 10.3188 2.25H13.6812C14.7813 2.25 15.7755 2.90559 16.2089 3.91672L17.1016 5.99988H20C20.4142 5.99988 20.75 6.33567 20.75 6.74988C20.75 7.1641 20.4142 7.49988 20 7.49988H18.75V18.9197C18.75 20.4385 17.5188 21.6697 16 21.6697H12H8C6.48122 21.6697 5.25 20.4385 5.25 18.9197V7.49988H4C3.58579 7.49988 3.25 7.1641 3.25 6.74988C3.25 6.33567 3.58579 5.99988 4 5.99988H6.89836ZM6.75 7.49988H17.25V18.9197C17.25 19.61 16.6904 20.1697 16 20.1697H12H8C7.30964 20.1697 6.75 19.61 6.75 18.9197V7.49988ZM10 9.75C10.4142 9.75 10.75 10.0858 10.75 10.5V16.5C10.75 16.9142 10.4142 17.25 10 17.25C9.58579 17.25 9.25 16.9142 9.25 16.5V10.5C9.25 10.0858 9.58579 9.75 10 9.75ZM14.75 10.5C14.75 10.0858 14.4142 9.75 14 9.75C13.5858 9.75 13.25 10.0858 13.25 10.5V16.5C13.25 16.9142 13.5858 17.25 14 17.25C14.4142 17.25 14.75 16.9142 14.75 16.5V10.5Z"/>
</symbol></svg>